<svg width="539" height="140" viewBox="0 0 539 140" fill="none" xmlns="http://www.w3.org/2000/svg">
<mask id="path-1-inside-1_326_294" fill="white">
<path d="M0 50C0 22.3858 22.3858 0 50 0H489C516.614 0 539 22.3858 539 50V90C539 117.614 516.614 140 489 140H50C22.3858 140 0 117.614 0 90V50Z"/>
</mask>
<path d="M0 50C0 22.3858 22.3858 0 50 0H489C516.614 0 539 22.3858 539 50V90C539 117.614 516.614 140 489 140H50C22.3858 140 0 117.614 0 90V50Z" fill="#FF0000"/>
<path d="M-6 50C-6 19.0721 19.0721 -6 50 -6H495C525.928 -6 551 19.0721 551 50H527C527 25.6995 509.987 6 489 6H50C25.6995 6 6 25.6995 6 50H-6ZM551 90C551 124.242 523.242 152 489 152H50C19.0721 152 -6 126.928 -6 96L6 90C6 110.987 25.6995 128 50 128H489C509.987 128 527 110.987 527 90H551ZM50 152C19.0721 152 -6 126.928 -6 96V50C-6 19.0721 19.0721 -6 50 -6V6C25.6995 6 6 25.6995 6 50V90C6 110.987 25.6995 128 50 128V152ZM495 -6C525.928 -6 551 19.0721 551 50V90C551 124.242 523.242 152 489 152V128C509.987 128 527 110.987 527 90V50C527 25.6995 509.987 6 489 6L495 -6Z" fill="#940000" mask="url(#path-1-inside-1_326_294)"/>
<path d="M180.477 77.6562C180.477 78.9531 180.234 80.0703 179.75 81.0078C179.281 81.9453 178.648 82.7422 177.852 83.3984C177.055 84.0547 176.133 84.5938 175.086 85.0156C174.055 85.4219 172.977 85.7422 171.852 85.9766C170.727 86.2109 169.594 86.3672 168.453 86.4453C167.328 86.5234 166.273 86.5625 165.289 86.5625C164.32 86.5625 163.312 86.5234 162.266 86.4453C161.234 86.3828 160.203 86.2656 159.172 86.0938C158.141 85.9219 157.125 85.6953 156.125 85.4141C155.125 85.1172 154.18 84.75 153.289 84.3125L153.242 54.125C154.117 53.7656 155.047 53.4453 156.031 53.1641C157.016 52.8672 158.016 52.625 159.031 52.4375C160.062 52.2344 161.086 52.0859 162.102 51.9922C163.117 51.8828 164.102 51.8281 165.055 51.8281C166.164 51.8281 167.281 51.8984 168.406 52.0391C169.547 52.1797 170.641 52.4141 171.688 52.7422C172.734 53.0703 173.711 53.5 174.617 54.0312C175.523 54.5469 176.312 55.1875 176.984 55.9531C177.672 56.7188 178.203 57.6094 178.578 58.625C178.969 59.6406 179.164 60.8125 179.164 62.1406C179.164 63.0156 179.039 63.8359 178.789 64.6016C178.539 65.3672 178.18 66.0547 177.711 66.6641C177.242 67.2734 176.672 67.7969 176 68.2344C175.328 68.6562 174.57 68.9688 173.727 69.1719C174.742 69.4375 175.664 69.8281 176.492 70.3438C177.336 70.8594 178.047 71.4844 178.625 72.2188C179.219 72.9531 179.672 73.7812 179.984 74.7031C180.312 75.625 180.477 76.6094 180.477 77.6562ZM168.57 64.2969C168.57 63.8438 168.477 63.4609 168.289 63.1484C168.102 62.8203 167.867 62.5547 167.586 62.3516C167.32 62.1484 167.023 62 166.695 61.9062C166.383 61.8125 166.102 61.7656 165.852 61.7656C165.539 61.7656 165.234 61.8125 164.938 61.9062C164.641 62 164.352 62.1094 164.07 62.2344L163.93 67.4375C164.289 67.4375 164.734 67.4062 165.266 67.3438C165.797 67.2812 166.305 67.1484 166.789 66.9453C167.289 66.7266 167.711 66.4141 168.055 66.0078C168.398 65.5859 168.57 65.0156 168.57 64.2969ZM165.242 71.9375C164.789 71.9375 164.352 71.9844 163.93 72.0781L163.836 77.4219C164.07 77.4688 164.297 77.5156 164.516 77.5625C164.75 77.5938 164.977 77.6094 165.195 77.6094C165.523 77.6094 165.883 77.5781 166.273 77.5156C166.664 77.4375 167.031 77.2969 167.375 77.0938C167.719 76.875 168 76.5859 168.219 76.2266C168.453 75.8672 168.57 75.3906 168.57 74.7969C168.57 74.2031 168.453 73.7188 168.219 73.3438C168 72.9688 167.727 72.6797 167.398 72.4766C167.07 72.2578 166.711 72.1172 166.32 72.0547C165.93 71.9766 165.57 71.9375 165.242 71.9375ZM209.773 59.9375C209.773 61.0938 209.719 62.3672 209.609 63.7578C209.5 65.1484 209.32 66.5859 209.07 68.0703C208.82 69.5547 208.492 71.0625 208.086 72.5938C207.695 74.1094 207.203 75.5703 206.609 76.9766C206.016 78.3828 205.32 79.7031 204.523 80.9375C203.742 82.1562 202.836 83.2266 201.805 84.1484C200.789 85.0547 199.648 85.7656 198.383 86.2812C197.117 86.8125 195.711 87.0781 194.164 87.0781C192.352 87.0781 190.773 86.7812 189.43 86.1875C188.102 85.6094 186.961 84.8281 186.008 83.8438C185.055 82.8438 184.273 81.6875 183.664 80.375C183.055 79.0469 182.578 77.6484 182.234 76.1797C181.891 74.6953 181.648 73.1875 181.508 71.6562C181.383 70.1094 181.32 68.625 181.32 67.2031C181.32 65.0156 181.43 62.8359 181.648 60.6641C181.867 58.4766 182.18 56.2969 182.586 54.125L193.555 54.5469C193.133 57 192.766 59.4688 192.453 61.9531C192.156 64.4219 192.008 66.9062 192.008 69.4062C192.008 69.6719 192.016 70.0703 192.031 70.6016C192.062 71.1172 192.109 71.7031 192.172 72.3594C192.234 73 192.32 73.6641 192.43 74.3516C192.555 75.0234 192.719 75.6406 192.922 76.2031C193.125 76.7656 193.367 77.2266 193.648 77.5859C193.945 77.9453 194.289 78.125 194.68 78.125C195.133 78.125 195.539 77.9141 195.898 77.4922C196.258 77.0547 196.57 76.4766 196.836 75.7578C197.117 75.0391 197.359 74.2109 197.562 73.2734C197.766 72.3359 197.938 71.3594 198.078 70.3438C198.219 69.3281 198.328 68.3125 198.406 67.2969C198.5 66.2812 198.57 65.3359 198.617 64.4609C198.68 63.5859 198.719 62.8125 198.734 62.1406C198.75 61.4688 198.758 60.9688 198.758 60.6406C198.758 59.4219 198.734 58.2109 198.688 57.0078C198.656 55.7891 198.602 54.5781 198.523 53.375H209.492C209.68 55.5312 209.773 57.7188 209.773 59.9375ZM241.484 54.2656L228.594 72.2656L227.984 86.9375H216.875L217.156 72.3594L210.453 54.9688L222.406 53.4688L224.281 63.5938L230.234 53.4688L241.484 54.2656ZM255.57 89.2344L255.805 80C255.305 79.9062 254.797 79.7969 254.281 79.6719C253.766 79.5312 253.258 79.3906 252.758 79.25C252.273 79.0938 251.805 78.9375 251.352 78.7812C250.898 78.625 250.492 78.4688 250.133 78.3125L250.93 72.5469C251.914 73.0469 253.016 73.4219 254.234 73.6719C255.453 73.9219 256.664 74.0469 257.867 74.0469C258.086 74.0469 258.352 74.0391 258.664 74.0234C258.992 74.0078 259.305 73.9688 259.602 73.9062C259.898 73.8281 260.148 73.7109 260.352 73.5547C260.57 73.3984 260.68 73.1875 260.68 72.9219C260.68 72.6406 260.523 72.4297 260.211 72.2891C259.914 72.1328 259.555 72.0234 259.133 71.9609C258.727 71.8828 258.312 71.8359 257.891 71.8203C257.469 71.8047 257.148 71.7969 256.93 71.7969C255.914 71.7969 254.992 71.6641 254.164 71.3984C253.336 71.1328 252.617 70.7578 252.008 70.2734C251.414 69.7734 250.953 69.1797 250.625 68.4922C250.297 67.8047 250.133 67.0312 250.133 66.1719C250.133 65.375 250.266 64.6328 250.531 63.9453C250.812 63.2578 251.195 62.6328 251.68 62.0703C252.18 61.5078 252.766 61.0156 253.438 60.5938C254.125 60.1562 254.867 59.7969 255.664 59.5156L255.289 49.625L257.82 49.8594V58.9531C258.039 58.9062 258.25 58.875 258.453 58.8594C258.656 58.8281 258.867 58.7969 259.086 58.7656L259.039 49.625L261.57 49.6719L261.242 58.7656C262.273 58.7969 263.312 58.8984 264.359 59.0703C265.406 59.2266 266.367 59.4844 267.242 59.8438L266.633 65.7969C265.805 65.5781 264.953 65.3906 264.078 65.2344C263.203 65.0781 262.367 65 261.57 65C261.32 65 260.984 65.0078 260.562 65.0234C260.156 65.0391 259.75 65.0859 259.344 65.1641C258.953 65.2422 258.609 65.3594 258.312 65.5156C258.031 65.6719 257.898 65.8906 257.914 66.1719C257.93 66.4062 258.031 66.5859 258.219 66.7109C258.406 66.8203 258.641 66.9062 258.922 66.9688C259.219 67.0156 259.547 67.0391 259.906 67.0391C260.266 67.0391 260.609 67.0312 260.938 67.0156C261.281 67 261.602 66.9844 261.898 66.9688C262.195 66.9531 262.43 66.9531 262.602 66.9688C263.539 67.0156 264.383 67.1797 265.133 67.4609C265.883 67.7422 266.523 68.125 267.055 68.6094C267.586 69.0781 267.992 69.6406 268.273 70.2969C268.555 70.9531 268.695 71.6719 268.695 72.4531C268.695 73.5469 268.508 74.5156 268.133 75.3594C267.773 76.2031 267.266 76.9375 266.609 77.5625C265.953 78.1719 265.164 78.6797 264.242 79.0859C263.336 79.4766 262.336 79.7656 261.242 79.9531L261.617 89.1875L259.32 89.4219L259.227 80.1875C259.008 80.2188 258.789 80.2344 258.57 80.2344C258.352 80.2344 258.133 80.2344 257.914 80.2344H257.82L257.867 89.375L255.57 89.2344ZM295.625 52.4844L295.391 62.4219L288.406 62.7031L286.625 84.9219L276.734 85.4375L276.781 63.2188L269.797 63.5938L270.078 52.5312L295.625 52.4844ZM324.945 69.4531C324.945 70.875 324.781 72.25 324.453 73.5781C324.125 74.8906 323.648 76.125 323.023 77.2812C322.414 78.4375 321.664 79.5 320.773 80.4688C319.898 81.4219 318.906 82.2422 317.797 82.9297C316.703 83.6172 315.508 84.1562 314.211 84.5469C312.914 84.9219 311.539 85.1094 310.086 85.1094C308.68 85.1094 307.336 84.9297 306.055 84.5703C304.789 84.2109 303.602 83.7109 302.492 83.0703C301.383 82.4141 300.375 81.6328 299.469 80.7266C298.578 79.8047 297.812 78.7891 297.172 77.6797C296.547 76.5547 296.055 75.3516 295.695 74.0703C295.352 72.7891 295.18 71.4531 295.18 70.0625C295.18 68.7031 295.344 67.375 295.672 66.0781C296 64.7656 296.469 63.5312 297.078 62.375C297.703 61.2188 298.453 60.1562 299.328 59.1875C300.203 58.2188 301.18 57.3828 302.258 56.6797C303.352 55.9766 304.531 55.4297 305.797 55.0391C307.062 54.6484 308.398 54.4531 309.805 54.4531C312.07 54.4531 314.133 54.8047 315.992 55.5078C317.867 56.2109 319.461 57.2188 320.773 58.5312C322.102 59.8281 323.125 61.4062 323.844 63.2656C324.578 65.1094 324.945 67.1719 324.945 69.4531ZM314.539 70.0625C314.539 69.3906 314.438 68.7422 314.234 68.1172C314.047 67.4766 313.766 66.9141 313.391 66.4297C313.016 65.9297 312.547 65.5312 311.984 65.2344C311.438 64.9219 310.805 64.7656 310.086 64.7656C309.352 64.7656 308.695 64.8984 308.117 65.1641C307.539 65.4297 307.039 65.7969 306.617 66.2656C306.211 66.7188 305.898 67.2578 305.68 67.8828C305.461 68.4922 305.352 69.1406 305.352 69.8281C305.352 70.4844 305.445 71.1406 305.633 71.7969C305.82 72.4531 306.102 73.0469 306.477 73.5781C306.852 74.1094 307.312 74.5391 307.859 74.8672C308.422 75.1953 309.07 75.3594 309.805 75.3594C310.539 75.3594 311.195 75.2188 311.773 74.9375C312.367 74.6406 312.867 74.25 313.273 73.7656C313.68 73.2656 313.992 72.6953 314.211 72.0547C314.43 71.4141 314.539 70.75 314.539 70.0625ZM354.875 81.2188C354.141 82.1406 353.234 82.9453 352.156 83.6328C351.078 84.3203 349.922 84.8906 348.688 85.3438C347.453 85.7969 346.188 86.1328 344.891 86.3516C343.594 86.5859 342.359 86.7031 341.188 86.7031C338.922 86.7031 336.836 86.2969 334.93 85.4844C333.023 84.6719 331.375 83.5547 329.984 82.1328C328.609 80.6953 327.531 79.0078 326.75 77.0703C325.969 75.1328 325.578 73.0469 325.578 70.8125C325.578 69.1094 325.773 67.4453 326.164 65.8203C326.555 64.1797 327.109 62.6406 327.828 61.2031C328.562 59.75 329.453 58.4219 330.5 57.2188C331.547 56 332.734 54.9531 334.062 54.0781C335.391 53.2031 336.844 52.5234 338.422 52.0391C340 51.5547 341.688 51.3125 343.484 51.3125C344.156 51.3125 344.875 51.3438 345.641 51.4062C346.406 51.4531 347.164 51.5469 347.914 51.6875C348.68 51.8125 349.422 51.9922 350.141 52.2266C350.859 52.4609 351.516 52.75 352.109 53.0938L351.453 62.0469C350.578 61.7188 349.672 61.5 348.734 61.3906C347.812 61.2656 346.906 61.2031 346.016 61.2031C344.766 61.2031 343.594 61.3984 342.5 61.7891C341.422 62.1641 340.477 62.7109 339.664 63.4297C338.867 64.1484 338.234 65.0234 337.766 66.0547C337.297 67.0859 337.062 68.25 337.062 69.5469C337.062 70.3594 337.172 71.1484 337.391 71.9141C337.609 72.6641 337.938 73.3359 338.375 73.9297C338.828 74.5078 339.383 74.9766 340.039 75.3359C340.711 75.6953 341.484 75.875 342.359 75.875C342.953 75.875 343.562 75.7969 344.188 75.6406C344.828 75.4844 345.375 75.2188 345.828 74.8438L345.922 73.0156L340.297 72.9219L340.578 65.8906C342.906 65.8125 345.234 65.75 347.562 65.7031C349.891 65.6406 352.234 65.5625 354.594 65.4688L354.875 81.2188ZM378.875 52.2031C378.781 53.6719 378.695 55.125 378.617 56.5625C378.539 58 378.438 59.4531 378.312 60.9219L368.375 61.4375L368.141 64.3906H375.125L374.609 71.6562L367.578 71.8906L367.344 75.3125H373.156H377.281C377.188 77.0312 377.086 78.7422 376.977 80.4453C376.883 82.1328 376.797 83.8281 376.719 85.5312L356.516 86L357.266 52.2031H378.875Z" fill="white"/>
</svg>
