<svg width="189" height="51" viewBox="0 0 189 51" fill="none" xmlns="http://www.w3.org/2000/svg">
<path fill-rule="evenodd" clip-rule="evenodd" d="M189 25.5C188.691 14.8762 181.42 5.90479 170.817 4.51595C156.043 2.58083 131.586 0.482476 94.9936 0.482788C58.4013 0.48263 33.9443 2.58096 19.1702 4.51604C8.56688 5.90484 1.29654 14.8762 0.987305 25.5C1.29654 36.1238 8.56688 45.0952 19.1702 46.484C33.9443 48.419 58.4013 50.5174 94.9936 50.5172C131.586 50.5175 156.043 48.4192 170.817 46.484C181.42 45.0952 188.691 36.1238 189 25.5Z" fill="#121212"/>
<path fill-rule="evenodd" clip-rule="evenodd" d="M184.034 23.0173C183.67 13.4615 177.015 5.44627 167.449 4.25212C153.196 2.47277 129.084 0.4825 92.5331 0.482788C55.9825 0.482642 31.8704 2.47289 17.6173 4.25219C8.05183 5.44631 1.39613 13.4615 1.03271 23.0173C1.39613 32.5731 8.05183 40.5882 17.6173 41.7823C31.8704 43.5616 55.9825 45.5519 92.5331 45.5517C129.084 45.552 153.196 43.5618 167.449 41.7824C177.015 40.5883 183.67 32.5731 184.034 23.0173Z" fill="#FD0000"/>
<path d="M46.272 27.3114C46.272 27.9598 46.1509 28.5184 45.9087 28.9872C45.6743 29.4559 45.3579 29.8544 44.9595 30.1825C44.561 30.5106 44.1001 30.7802 43.5767 30.9911C43.061 31.1942 42.522 31.3544 41.9595 31.4716C41.397 31.5887 40.8306 31.6669 40.2603 31.7059C39.6978 31.745 39.1704 31.7645 38.6782 31.7645C38.1938 31.7645 37.6899 31.745 37.1665 31.7059C36.6509 31.6747 36.1353 31.6161 35.6196 31.5302C35.104 31.4442 34.5962 31.3309 34.0962 31.1903C33.5962 31.0419 33.1235 30.8583 32.6782 30.6395L32.6548 15.5458C33.0923 15.3661 33.5571 15.2059 34.0493 15.0653C34.5415 14.9169 35.0415 14.7958 35.5493 14.702C36.0649 14.6005 36.5767 14.5262 37.0845 14.4794C37.5923 14.4247 38.0845 14.3973 38.561 14.3973C39.1157 14.3973 39.6743 14.4325 40.2368 14.5028C40.8071 14.5731 41.354 14.6903 41.8774 14.8544C42.4009 15.0184 42.8892 15.2333 43.3423 15.4989C43.7954 15.7567 44.1899 16.077 44.5259 16.4598C44.8696 16.8427 45.1353 17.288 45.3228 17.7958C45.5181 18.3036 45.6157 18.8895 45.6157 19.5536C45.6157 19.9911 45.5532 20.4012 45.4282 20.7841C45.3032 21.1669 45.1235 21.5106 44.8892 21.8153C44.6548 22.12 44.3696 22.3817 44.0337 22.6005C43.6978 22.8114 43.3188 22.9677 42.897 23.0692C43.4048 23.202 43.8657 23.3973 44.2798 23.6552C44.7017 23.913 45.0571 24.2255 45.3462 24.5927C45.6431 24.9598 45.8696 25.3739 46.0259 25.8348C46.1899 26.2958 46.272 26.788 46.272 27.3114ZM40.3188 20.6317C40.3188 20.4052 40.272 20.2137 40.1782 20.0575C40.0845 19.8934 39.9673 19.7606 39.8267 19.6591C39.6938 19.5575 39.5454 19.4833 39.3813 19.4364C39.2251 19.3895 39.0845 19.3661 38.9595 19.3661C38.8032 19.3661 38.6509 19.3895 38.5024 19.4364C38.354 19.4833 38.2095 19.538 38.0688 19.6005L37.9985 22.202C38.1782 22.202 38.4009 22.1864 38.6665 22.1552C38.9321 22.1239 39.186 22.0575 39.4282 21.9559C39.6782 21.8466 39.8892 21.6903 40.061 21.4872C40.2329 21.2762 40.3188 20.9911 40.3188 20.6317ZM38.6548 24.452C38.4282 24.452 38.2095 24.4755 37.9985 24.5223L37.9517 27.1942C38.0688 27.2177 38.1821 27.2411 38.2915 27.2645C38.4087 27.2802 38.522 27.288 38.6313 27.288C38.7954 27.288 38.9751 27.2723 39.1704 27.2411C39.3657 27.202 39.5493 27.1317 39.7212 27.0302C39.8931 26.9208 40.0337 26.7762 40.1431 26.5966C40.2603 26.4169 40.3188 26.1786 40.3188 25.8817C40.3188 25.5848 40.2603 25.3427 40.1431 25.1552C40.0337 24.9677 39.897 24.8231 39.7329 24.7216C39.5688 24.6122 39.3892 24.5419 39.1938 24.5106C38.9985 24.4716 38.8188 24.452 38.6548 24.452ZM60.9204 18.452C60.9204 19.0302 60.8931 19.6669 60.8384 20.3622C60.7837 21.0575 60.6938 21.7762 60.5688 22.5184C60.4438 23.2606 60.2798 24.0145 60.0767 24.7802C59.8813 25.538 59.6353 26.2684 59.3384 26.9716C59.0415 27.6747 58.6938 28.3348 58.2954 28.952C57.9048 29.5614 57.4517 30.0966 56.936 30.5575C56.4282 31.0106 55.8579 31.3661 55.2251 31.6239C54.5923 31.8895 53.8892 32.0223 53.1157 32.0223C52.2095 32.0223 51.4204 31.8739 50.7485 31.577C50.0845 31.288 49.5142 30.8973 49.0376 30.4052C48.561 29.9052 48.1704 29.327 47.8657 28.6708C47.561 28.0067 47.3228 27.3075 47.1509 26.5731C46.979 25.8309 46.8579 25.077 46.7876 24.3114C46.7251 23.538 46.6938 22.7958 46.6938 22.0848C46.6938 20.9911 46.7485 19.9012 46.8579 18.8153C46.9673 17.7216 47.1235 16.6317 47.3267 15.5458L52.811 15.7567C52.6001 16.9833 52.4165 18.2177 52.2603 19.4598C52.1118 20.6942 52.0376 21.9364 52.0376 23.1864C52.0376 23.3192 52.0415 23.5184 52.0493 23.7841C52.0649 24.0419 52.0884 24.3348 52.1196 24.663C52.1509 24.9833 52.1938 25.3153 52.2485 25.6591C52.311 25.995 52.3931 26.3036 52.4946 26.5848C52.5962 26.8661 52.7173 27.0966 52.8579 27.2762C53.0063 27.4559 53.1782 27.5458 53.3735 27.5458C53.6001 27.5458 53.8032 27.4403 53.9829 27.2294C54.1626 27.0106 54.3188 26.7216 54.4517 26.3622C54.5923 26.0028 54.7134 25.5887 54.8149 25.12C54.9165 24.6512 55.0024 24.163 55.0728 23.6552C55.1431 23.1473 55.1978 22.6395 55.2368 22.1317C55.2837 21.6239 55.3188 21.1512 55.3423 20.7137C55.3735 20.2762 55.3931 19.8895 55.4009 19.5536C55.4087 19.2177 55.4126 18.9677 55.4126 18.8036C55.4126 18.1942 55.4009 17.5887 55.3774 16.9872C55.3618 16.3778 55.3345 15.7723 55.2954 15.1708H60.7798C60.8735 16.2489 60.9204 17.3427 60.9204 18.452ZM76.7759 15.6161L70.3306 24.6161L70.0259 31.952H64.4712L64.6118 24.663L61.2603 15.9677L67.2368 15.2177L68.1743 20.2802L71.1509 15.2177L76.7759 15.6161ZM93.3696 14.7255L93.2524 19.6942L89.7603 19.8348L88.8696 30.9442L83.9243 31.202L83.9478 20.0927L80.4556 20.2802L80.5962 14.7489L93.3696 14.7255ZM108.03 23.2098C108.03 23.9208 107.948 24.6083 107.784 25.2723C107.62 25.9286 107.381 26.5458 107.069 27.1239C106.764 27.702 106.389 28.2333 105.944 28.7177C105.506 29.1942 105.01 29.6044 104.456 29.9481C103.909 30.2919 103.311 30.5614 102.663 30.7567C102.014 30.9442 101.327 31.038 100.6 31.038C99.897 31.038 99.2251 30.9481 98.5845 30.7684C97.9517 30.5887 97.3579 30.3387 96.8032 30.0184C96.2485 29.6903 95.7446 29.2997 95.2915 28.8466C94.8462 28.3856 94.4634 27.8778 94.1431 27.3231C93.8306 26.7606 93.5845 26.1591 93.4048 25.5184C93.2329 24.8778 93.147 24.2098 93.147 23.5145C93.147 22.8348 93.229 22.1708 93.3931 21.5223C93.5571 20.8661 93.7915 20.2489 94.0962 19.6708C94.4087 19.0927 94.7837 18.5614 95.2212 18.077C95.6587 17.5927 96.147 17.1747 96.686 16.8231C97.2329 16.4716 97.8228 16.1981 98.4556 16.0028C99.0884 15.8075 99.7563 15.7098 100.459 15.7098C101.592 15.7098 102.624 15.8856 103.553 16.2372C104.491 16.5887 105.288 17.0927 105.944 17.7489C106.608 18.3973 107.12 19.1864 107.479 20.1161C107.846 21.038 108.03 22.0692 108.03 23.2098ZM102.827 23.5145C102.827 23.1786 102.776 22.8544 102.674 22.5419C102.581 22.2216 102.44 21.9403 102.252 21.6981C102.065 21.4481 101.831 21.2489 101.549 21.1005C101.276 20.9442 100.959 20.8661 100.6 20.8661C100.233 20.8661 99.9048 20.9325 99.6157 21.0653C99.3267 21.1981 99.0767 21.3817 98.8657 21.6161C98.6626 21.8427 98.5063 22.1122 98.397 22.4247C98.2876 22.7294 98.2329 23.0536 98.2329 23.3973C98.2329 23.7255 98.2798 24.0536 98.3735 24.3817C98.4673 24.7098 98.6079 25.0067 98.7954 25.2723C98.9829 25.538 99.2134 25.7528 99.4868 25.9169C99.7681 26.0809 100.092 26.163 100.459 26.163C100.827 26.163 101.155 26.0927 101.444 25.952C101.741 25.8036 101.991 25.6083 102.194 25.3661C102.397 25.1161 102.553 24.8309 102.663 24.5106C102.772 24.1903 102.827 23.8583 102.827 23.5145ZM123.709 14.702L118.061 22.5067L122.819 30.8036L117.381 31.7645L113.819 26.702L113.631 31.9989L108.756 32.1864L109.131 14.2333L114.592 14.538L114.17 19.8348L117.803 14.2333L123.709 14.702ZM134.69 14.5848C134.643 15.3192 134.6 16.0458 134.561 16.7645C134.522 17.4833 134.471 18.2098 134.409 18.9442L129.44 19.202L129.323 20.6786H132.815L132.557 24.3114L129.042 24.4286L128.924 26.1395H131.831H133.893C133.846 26.9989 133.795 27.8544 133.741 28.7059C133.694 29.5497 133.651 30.3973 133.612 31.2489L123.51 31.4833L123.885 14.5848H134.69ZM151.038 14.6786L150.194 30.5692L144.053 31.1317L140.772 22.6239L140.256 31.2958H134.983L135.405 14.6786L141.264 14.3973L145.319 22.8348L145.506 14.8661L151.038 14.6786Z" fill="white"/>
</svg>
